<svg xmlns="http://www.w3.org/2000/svg" width="1705" height="452" viewBox="0 0 1705 452" fill="none"><path fill-rule="evenodd" clip-rule="evenodd" d="M81.0557 1.54707C80.5922 3.17316 77.2074 11.7458 75.7456 14.9947C75.2745 16.0419 74.1999 18.6125 73.3578 20.707C71.4067 25.56 70.3617 27.983 67.3466 34.6449C66.7211 36.0268 66.2091 37.2492 66.2091 37.3606C66.2091 37.472 65.5899 38.9115 64.833 40.5595C64.0761 42.2074 62.9772 44.6271 62.3913 45.9361C61.8059 47.2452 60.8376 49.3873 60.2398 50.6963C59.642 52.0054 57.8696 56.0754 56.3016 59.7408C54.7335 63.4061 52.8915 67.637 52.2085 69.1422C49.0462 76.1131 48.5851 77.157 48.5851 77.3464C48.5851 77.4578 47.9149 79.0044 47.0961 80.7833C44.7254 85.9339 43.507 88.6158 42.4376 91.0392C41.8889 92.283 41.0339 94.2109 40.5371 95.3234C40.0403 96.4359 39.0534 98.7389 38.3441 100.441C37.6349 102.142 36.6236 104.499 36.0973 105.677C35.0346 108.054 33.6714 111.117 32.3901 114.007C30.4124 118.469 29.2697 120.954 27.0295 125.67C25.7239 128.419 23.701 132.703 22.5349 135.19C18.1565 144.527 15.9745 148.545 14.5584 149.876C12.7007 151.622 9.75513 152.327 4.31407 152.327H0V156.016V159.705H26.436H52.872V156.079V152.452L49.4187 152.166C36.2797 151.075 33.819 150.161 33.819 146.372C33.819 143.92 36.5107 135.381 39.1053 129.602C39.6035 128.492 40.0113 127.401 40.0113 127.176C40.0113 126.952 40.3123 126.146 40.68 125.386C41.5998 123.486 42.9011 120.492 45.006 115.435C45.9867 113.079 47.2314 110.134 47.772 108.89L48.7551 106.629L80.4645 106.635L112.174 106.64L117.582 120.32C120.557 127.844 123.311 134.722 123.704 135.603C124.83 138.13 127.655 146.983 127.655 147.984C127.655 148.482 127.265 149.37 126.789 149.959C125.71 151.29 119.699 152.301 112.77 152.317L108.126 152.327V156.016V159.705H138.61H169.095V156.016V152.327H165.715C161.036 152.327 157.404 151.185 155.193 149.019C153.684 147.54 149.688 140.035 147.198 134C146.535 132.394 145.426 129.821 144.428 127.574C143.905 126.396 142.683 123.504 141.713 121.148C140.743 118.791 139.519 115.899 138.992 114.721C138.465 113.543 137.734 111.883 137.369 111.032C137.004 110.181 136.406 108.789 136.041 107.938C135.676 107.087 134.903 105.32 134.323 104.011C133.744 102.702 132.997 100.988 132.663 100.203C132.328 99.4172 131.708 97.9715 131.284 96.9895C130.86 96.0079 130.191 94.4547 129.798 93.5383C128.008 89.3631 127.693 88.6362 126.702 86.398C125.433 83.5295 125.082 82.7031 122.159 75.6875C120.905 72.6767 119.4 69.1422 118.816 67.8331C118.231 66.5241 116.421 62.347 114.793 58.5507C113.165 54.7544 111.449 50.7915 110.98 49.7443C110.51 48.697 109.229 45.6981 108.132 43.08C107.036 40.4619 105.728 37.4115 105.227 36.3019C104.725 35.1918 104.315 34.1808 104.315 34.0551C104.315 33.9289 103.756 32.5875 103.073 31.0747C101.694 28.0215 100.529 25.3429 98.3043 20.1119C97.0382 17.1344 96.3099 15.4517 95.2649 13.0906C94.6857 11.7815 93.9126 10.0141 93.5473 9.16342C93.1824 8.31277 92.5384 6.8133 92.1169 5.83127C91.6953 4.84971 91.0523 3.42403 90.6879 2.66382C90.3235 1.90361 90.0253 0.993458 90.0253 0.640726C90.0253 0.151375 89.0174 0 85.7608 0H81.4963L81.0557 1.54707ZM200.531 21.5814C197.256 23.2013 193.213 25.1173 191.548 25.8389L188.52 27.1513L188.929 37.4958C189.155 43.1852 189.339 50.9353 189.339 54.7187V61.5968L187.672 62.4389C185.122 63.727 180.238 65.8591 175.883 67.5856L171.953 69.1436V71.7727V74.4013L180.81 74.0643L189.667 73.7268L189.52 109.575C189.364 147.767 189.29 146.333 191.668 151.355C193.042 154.257 196.349 157.559 199.52 159.199C205.868 162.479 215.716 163.194 223.869 160.967C227.82 159.887 227.322 160.326 235.304 150.898C236.745 149.197 238.11 147.67 238.337 147.504C238.569 147.335 238.569 146.898 238.337 146.504C237.678 145.386 235.395 142.807 235.064 142.807C234.897 142.807 233.865 143.41 232.77 144.148C228.74 146.861 227.258 147.329 222.682 147.329C219.478 147.329 217.95 147.108 216.636 146.454C214.407 145.347 212.236 143.281 211.19 141.274C209.26 137.569 209.103 135.09 208.788 103.416L208.483 72.8314H223.495H238.506L238.826 69.8562C239.002 68.2201 239.273 65.5701 239.428 63.9683L239.712 61.0551L224.34 61.3007L208.968 61.5463L209.256 50.4093C209.415 44.2838 209.764 35.1047 210.032 30.0122C210.515 20.8517 210.51 20.7408 209.492 19.6588C208.927 19.0571 208.019 18.581 207.475 18.6006C206.932 18.6201 203.807 19.9615 200.531 21.5814ZM269.122 21.5814C265.847 23.2013 261.804 25.1173 260.138 25.8389L257.11 27.1513L257.52 37.4958C257.745 43.1852 257.93 50.9353 257.93 54.7187V61.5968L256.263 62.4389C253.713 63.727 248.829 65.8591 244.474 67.5856L240.544 69.1436V71.7727V74.4013L249.401 74.0643L258.258 73.7268L258.111 109.575C257.955 147.767 257.881 146.333 260.259 151.355C261.633 154.257 264.939 157.559 268.111 159.199C274.458 162.479 284.299 163.194 292.463 160.968C296.477 159.873 295.763 160.502 303.895 150.898C305.336 149.197 306.712 147.662 306.953 147.488C307.406 147.162 306.651 145.789 304.966 143.878C303.778 142.531 303.759 142.532 301.361 144.148C297.331 146.861 295.848 147.329 291.272 147.329C288.069 147.329 286.541 147.108 285.227 146.454C282.998 145.347 280.827 143.281 279.781 141.274C277.851 137.569 277.694 135.09 277.378 103.416L277.074 72.8314H292.085H307.097L307.416 69.8562C307.592 68.2201 307.863 65.5701 308.019 63.9683L308.302 61.0551L292.931 61.3007L277.559 61.5463L277.847 50.4093C278.005 44.2838 278.354 35.1047 278.623 30.0122C279.106 20.8517 279.1 20.7408 278.083 19.6588C277.518 19.0571 276.61 18.581 276.066 18.6006C275.522 18.6201 272.398 19.9615 269.122 21.5814ZM81.2395 33.6786C82.5651 36.6913 82.7833 37.2016 85.0539 42.604C87.0373 47.3237 87.7985 49.1107 89.107 52.1244C89.3342 52.648 90.1873 54.7901 91.0023 56.8846C91.8177 58.9791 93.1333 62.1923 93.9269 64.025C94.72 65.8576 95.6417 67.9997 95.9751 68.7852C96.308 69.5706 96.9111 70.963 97.3145 71.8793C97.7184 72.7957 98.5053 74.7064 99.0631 76.125C99.6214 77.544 100.518 79.6861 101.056 80.8852C103.246 85.7677 106.927 94.5894 107.379 96.0374L107.714 97.1085H80.5307C63.3631 97.1085 53.3483 96.939 53.3483 96.6486C53.3483 96.3959 53.6518 95.4852 54.0233 94.6256C54.3943 93.7659 55.0207 92.3126 55.4151 91.3962C55.8095 90.4799 56.5888 88.5691 57.1465 87.1506C57.7048 85.7316 58.5536 83.6966 59.0328 82.6284C59.5124 81.5597 61.0267 78.0081 62.3985 74.7355C63.7703 71.4628 65.2684 67.9283 65.7275 66.8811C66.1867 65.8338 67.3628 63.0491 68.3407 60.6928C69.3185 58.3365 70.497 55.5518 70.9595 54.5045C71.422 53.4573 71.9655 52.0649 72.1665 51.4104C72.368 50.7558 73.0115 49.1493 73.5974 47.8402C74.1828 46.5311 75.4612 43.5322 76.4386 41.1759C77.4161 38.8196 78.6226 35.9835 79.1194 34.8738C79.6162 33.7638 80.0225 32.6394 80.0225 32.3747C80.0225 31.4413 80.4626 31.913 81.2395 33.6786ZM459.497 52.5919C456.946 53.6605 452.964 55.0667 449.412 56.1525C446.205 57.1326 438.947 58.5207 432.026 59.477C425.352 60.3996 425.834 60.0664 425.834 63.7508V66.9711L433.208 67.289C441.718 67.6556 443.597 68.2159 444.619 70.6893C445.956 73.9253 446.283 80.9228 446.299 106.68C446.32 140.265 445.721 148.987 443.282 150.571C441.831 151.514 438.165 152.224 433.217 152.521C430.859 152.662 428.233 152.917 427.382 153.088L425.834 153.398V156.552V159.705H457.033H488.233V156.492V153.279L483.35 153.279C475.039 153.278 468.681 151.597 467.678 149.137C466.441 146.101 465.901 137.108 465.883 119.244C465.86 95.659 466.625 88.8785 470.033 82.4637C471.292 80.0945 475.287 75.9298 476.745 75.4671C477.3 75.2914 477.753 74.9873 477.753 74.7916C477.753 74.5955 479.145 73.9448 480.845 73.345C483.329 72.4682 484.662 72.2906 487.632 72.441C493.369 72.7304 496.707 74.9002 499.775 80.3316L501.209 82.8721L503.89 82.7307L506.571 82.5898L506.915 73.3074C507.104 68.202 507.479 62.9968 507.749 61.7405C508.018 60.4838 508.238 58.3127 508.238 56.916C508.238 53.8181 507.542 53.2269 502.96 52.431C495.391 51.1167 488.893 52.6009 483.164 56.9532C480.266 59.1543 478.576 60.9484 474.032 66.6431C472.047 69.1303 469.266 72.3434 467.851 73.7834L465.279 76.4015L465.53 65.1817C465.802 52.9922 465.611 51.7393 463.453 51.5389C462.804 51.4784 461.024 51.9526 459.497 52.5919ZM541.819 52.6423C538.825 53.8909 532.826 56.0083 530.387 56.6771C526.734 57.6791 524.906 58.1213 521.813 58.7525C518.409 59.4471 512.759 60.3677 510.62 60.5767C509.484 60.6876 509.422 60.8537 509.289 64.144L509.149 67.5951L515.243 67.6408C523.352 67.7017 525.747 68.273 527.027 70.4513C527.991 72.0931 528.005 72.6419 527.988 107.819C527.968 147.222 527.828 149.655 525.462 151.301C523.474 152.684 520.163 153.279 514.458 153.279H509.191V156.492V159.705H538.008H566.826V156.54V153.375L560.753 153.153C557.412 153.032 553.876 152.679 552.893 152.369C550.76 151.697 548.869 149.926 548.382 148.145C548.187 147.434 548.025 133.25 548.02 116.625C548.01 83.409 547.896 84.8466 550.962 79.619C553.456 75.3652 559.6 70.4208 564.554 68.6795C577.965 63.9664 592.178 67.8512 598.029 77.8296C599.778 80.8133 601 85.4388 601.636 91.4843C602.483 99.5333 601.843 131.508 600.374 154.469L600.039 159.705H619.633H639.227V156.492V153.279H634.4C628.721 153.279 626.188 152.668 624.196 150.816C621.697 148.493 621.539 146.141 621.633 112.722C621.718 82.3204 621.589 79.6213 619.745 73.4178C617.708 66.5607 610.873 59.1457 603.481 55.775C599.915 54.1494 596.799 53.2688 592.113 52.5623C586.5 51.716 583.393 51.7207 578.258 52.5823C570.887 53.819 566.843 55.4304 563.639 58.4065C561.492 60.402 555.672 65.5944 551.15 69.5492L547.143 73.0532L547.426 63.0924C547.599 57.0084 547.529 52.7965 547.248 52.271C546.631 51.119 545.245 51.2138 541.819 52.6423ZM359.625 52.6133C349.057 54.1561 342.424 56.6162 334.618 61.8895C319.893 71.8355 312.029 87.49 312.001 106.908C311.986 117.694 314.572 129.997 318.197 136.38C321.821 142.762 322.98 144.32 327.444 148.804C336.318 157.721 348.105 162.291 362.286 162.315C373.883 162.334 384.429 159.572 393.682 154.093C395.516 153.007 397.124 152.003 397.255 151.863C397.386 151.722 398.35 150.975 399.398 150.201C403.268 147.345 408.734 141.478 411.847 136.838C417.962 127.727 420.763 117.296 420.726 103.773C420.704 95.5919 419.968 90.4442 417.966 84.4939C415.471 77.0741 412.932 72.8299 407.759 67.4318C401.383 60.7785 393.745 56.2558 385.108 54.0209C377.418 52.0311 367.402 51.478 359.625 52.6133ZM686.145 52.609C682.245 53.314 677.595 54.5302 675.904 55.288C675.249 55.5818 674.285 55.9849 673.761 56.1844C668.177 58.3089 659.124 63.8664 654.219 68.1816C648.116 73.5511 643.407 82.8093 640.816 94.5389C639.634 99.887 639.626 117.619 640.803 122.939C643.552 135.369 649.094 144.888 657.548 151.697C670.834 162.4 688.963 165.044 711.025 159.497C712.134 159.218 713.956 158.651 715.074 158.235C725.079 154.52 730.205 151.782 730.205 150.154C730.205 149.771 730.403 149.086 730.644 148.631C732.076 145.929 733.188 142.158 732.754 141.47C731.706 139.811 730.892 139.761 728.728 141.226C724.568 144.043 717.226 147.389 712.581 148.585C709.251 149.443 702.757 150.406 700.252 150.415C690.263 150.447 680.129 146.365 673.172 139.506C670.591 136.961 667.807 133.257 667.807 132.367C667.807 132.087 667.645 131.858 667.447 131.858C667.249 131.858 666.798 131.162 666.446 130.311C666.094 129.46 665.523 128.121 665.179 127.336C663.57 123.673 661.615 113.814 661.615 109.366V106.153L685.074 106.126C707.664 106.1 722.305 105.637 727.824 104.776C731.598 104.187 735.571 103.33 735.858 103.043C736.415 102.486 736.481 93.8563 735.959 89.7982C734.357 77.3531 731.231 70.1223 724.742 63.8541C720.152 59.4199 714.998 56.102 710.438 54.6445C702.495 52.1054 693.226 51.329 686.145 52.609ZM737.827 57.9557V61.4068L741.28 61.4173C745.526 61.4302 747.855 62.3984 750.385 65.2026C752.258 67.2781 752.861 68.4496 756.399 76.8775C757.498 79.4957 759.041 83.0301 759.827 84.7319C760.613 86.4337 761.804 89.2184 762.473 90.9202C763.142 92.622 763.872 94.2181 764.095 94.4666C764.318 94.7155 764.501 95.1996 764.501 95.5428C764.501 95.8861 764.954 97.1818 765.509 98.4228C767.104 101.992 767.495 102.955 771.654 113.531C773.816 119.029 775.77 123.731 775.997 123.98C776.224 124.229 776.409 124.713 776.409 125.056C776.409 125.399 776.806 126.588 777.291 127.698C777.776 128.808 778.665 130.894 779.266 132.334C779.867 133.774 780.631 135.595 780.965 136.38C781.298 137.166 781.933 138.772 782.376 139.95C782.82 141.129 783.588 143.001 784.083 144.11C784.578 145.221 784.983 146.409 784.983 146.752C784.983 147.096 785.171 147.58 785.401 147.829C785.632 148.078 786.087 149.138 786.413 150.185C786.739 151.232 787.515 153.22 788.138 154.602C788.76 155.984 789.27 157.326 789.27 157.583C789.27 157.839 789.68 158.958 790.182 160.068C792.581 165.371 792.635 164.733 789.04 173.591C781.954 191.046 777.732 199.42 774.146 203.126C766.747 210.775 759.456 210.86 752.332 203.38C750.834 201.809 748.255 201.236 747.581 202.326C747.297 202.784 745.831 207.611 743.413 216.044C742.268 220.04 742.108 219.747 746.4 221.523C751.204 223.509 756.884 224.17 761.075 223.228C769.921 221.241 776.165 217.221 780.751 210.558C782.023 208.712 785.268 202.283 786.854 198.471C787.229 197.571 788.368 195.014 789.386 192.789C790.405 190.563 791.523 188.1 791.87 187.315C792.219 186.529 792.979 184.816 793.56 183.506C794.142 182.197 795.045 180.162 795.566 178.984C796.088 177.806 796.8 176.2 797.148 175.414C797.496 174.629 798.652 172.091 799.717 169.774C800.782 167.457 801.654 165.304 801.654 164.99C801.654 164.675 801.842 164.214 802.072 163.966C802.301 163.717 802.952 162.253 803.518 160.712C804.084 159.172 804.99 156.923 805.532 155.714C806.074 154.506 806.838 152.767 807.231 151.851C807.623 150.935 808.13 149.757 808.357 149.233C808.585 148.709 809.762 145.925 810.972 143.045C812.183 140.165 813.475 137.112 813.844 136.261C815.121 133.318 816.06 131.137 816.715 129.597C817.076 128.746 817.673 127.353 818.04 126.503C818.406 125.652 819.455 123.135 820.37 120.91C821.285 118.684 822.618 115.578 823.333 114.007C824.047 112.436 824.909 110.509 825.247 109.723C825.585 108.938 826.924 106.046 828.222 103.297C829.519 100.548 831.062 97.2275 831.649 95.9184C832.236 94.6094 833.434 92.0117 834.311 90.1457C835.189 88.2797 836.577 85.2808 837.396 83.4814C841.022 75.5118 845.287 67.4304 846.798 65.6663C849.161 62.9082 852.383 61.4068 855.939 61.4068H858.813V57.9557V54.5045H837.378H815.944V57.8795V61.254L819.397 61.8329C831.477 63.8579 832.381 64.4919 830.924 69.9233C830.459 71.6537 829.717 73.9262 829.275 74.9735C828.832 76.0207 827.995 78.2699 827.415 79.9717C826.835 81.6735 826.18 83.4943 825.958 84.0179C824.516 87.4362 821.183 96.244 821.183 96.6401C821.183 96.9033 820.777 98.0267 820.28 99.1368C818.814 102.411 815.467 110.448 815.467 110.696C815.467 110.821 815.014 111.938 814.46 113.179C813.905 114.42 813.177 116.078 812.842 116.863C812.508 117.649 811.76 119.363 811.181 120.672C810.601 121.981 809.804 123.801 809.409 124.718C809.014 125.634 808.072 127.732 807.316 129.38C806.56 131.028 805.941 132.468 805.941 132.579C805.941 132.691 805.405 133.953 804.75 135.384C804.095 136.814 803.559 138.256 803.559 138.587C803.559 139.755 802.762 138.254 800.487 132.81C797.896 126.606 796.622 123.669 795.654 121.669C795.287 120.909 794.985 120.104 794.985 119.879C794.985 119.655 794.557 118.509 794.033 117.334C793.509 116.159 792.651 114.236 792.128 113.06C791.604 111.885 791.175 110.643 791.175 110.3C791.175 109.956 790.988 109.472 790.76 109.223C790.385 108.814 788.595 104.275 782.981 89.4921C781.131 84.621 780.69 83.4895 779.777 81.2808C779.104 79.6513 776.95 73.4949 775.666 69.5297C774.549 66.0828 774.542 65.9519 775.368 64.5314C776.809 62.0561 778.74 61.4554 785.34 61.4297L791.175 61.4068V57.9557V54.5045H764.501H737.827L737.827 57.9557ZM368.295 60.9465C374.046 62.0661 378.429 63.9464 382.782 67.1605C388.928 71.6975 395.12 83.1882 397.509 94.4904C399.129 102.15 399.738 117.443 398.667 123.567C396.943 133.436 395.064 138.351 391.133 143.283C387.38 147.991 384.078 150.387 378.518 152.436C376.07 153.337 374.631 153.517 369.866 153.517C364.449 153.517 358.947 152.68 358.384 151.77C358.25 151.553 357.835 151.375 357.462 151.375C356.311 151.375 351.412 147.995 348.887 145.458C344.35 140.9 340.164 133.579 337.436 125.432C336.105 121.456 335.849 120.42 334.556 113.769C333.522 108.444 333.365 91.8946 334.314 88.0641C335.966 81.3888 337.983 76.2444 340.284 72.8371C346.181 64.1035 358.234 58.9872 368.295 60.9465ZM693.624 60.9746C701.512 62.5997 707.301 66.2323 710.359 71.4761C713.208 76.3606 715.389 86.0838 715.424 94.0619L715.439 97.4422L711.079 97.7511C705.461 98.15 683.647 98.1467 671.26 97.7459L661.615 97.4336L661.63 95.4857C661.645 93.5036 662.686 85.6587 663.278 83.0658C664.323 78.4913 666.361 73.3569 667.685 71.9645C668.014 71.6185 668.283 71.19 668.283 71.012C668.283 70.4874 671.718 66.9377 673.523 65.5968C679.234 61.3535 686.903 59.5903 693.624 60.9746ZM910.732 148.043V156.135H1295.6H1680.47V148.043V139.95H1295.6H910.732V148.043ZM1016 201.864C993.884 203.039 975.078 203.384 948.838 203.097C933.513 202.929 918.669 202.655 915.853 202.488L910.732 202.185V207.884V213.583L919.902 213.887C931.836 214.283 937.378 215.487 940.654 218.396C943.037 220.511 944.709 227.75 945.49 239.33C946.144 249.021 946.155 385.089 945.504 401.525C944.526 426.176 943.816 431.063 940.767 434.1C938.183 436.675 936.018 437.061 922.521 437.346L910.732 437.595V443.288V448.982L921.092 448.578C934.412 448.06 995.622 448.054 1006.35 448.57L1014.57 448.965V443.288V437.611L1003.97 437.301C992.926 436.977 990.239 436.558 986.16 434.522C982.623 432.757 981.742 430.776 980.802 422.47C979.46 410.604 979.222 390.602 979.518 314.413C979.683 271.999 979.931 233.822 980.069 229.575L980.321 221.853L983.513 220.912C1005.34 214.482 1021.51 213.684 1039.82 218.136C1050.78 220.801 1060.26 226.667 1066.09 234.386C1072.96 243.49 1076.02 253.481 1076.02 266.875C1076.02 289.03 1067.26 305.182 1050.28 314.343C1042.21 318.697 1029.66 320.979 1019.65 319.915C1016.73 319.604 1013.26 319.143 1011.95 318.89C1007.23 317.978 1004.28 317.353 1001.75 316.726C1000.32 316.375 999.069 316.179 998.957 316.292C998.844 316.404 999.111 317.848 999.551 319.501C999.99 321.153 1000.75 324.081 1001.24 326.007C1001.73 327.933 1002.25 329.625 1002.39 329.766C1002.53 329.907 1003.67 330.196 1004.92 330.408C1006.17 330.62 1008.47 331.022 1010.05 331.301C1016.34 332.419 1024.12 333.208 1028.86 333.208C1033.58 333.208 1042.52 332.28 1046.72 331.353C1047.77 331.122 1049.38 330.782 1050.3 330.598C1054.18 329.817 1063.79 326.264 1068.96 323.703C1084.07 316.206 1095.34 306.172 1102.92 293.468C1110.05 281.523 1113.15 270.796 1113.16 258.004C1113.18 242.058 1108.28 230.161 1097.21 219.314C1092.34 214.537 1084.12 209.879 1075.78 207.172C1071.7 205.85 1070.04 205.416 1063.39 203.952C1053.78 201.832 1033.45 200.936 1016 201.864ZM196.127 202.564C195.93 202.773 195.769 205.349 195.769 208.288C195.769 214.253 195.744 214.21 199.237 214.21C200.315 214.21 203.031 214.435 205.271 214.709C224.178 217.027 224.761 217.203 227.278 221.359C228.717 223.734 229.446 228.652 230.63 243.961C231.532 255.633 231.536 406.222 230.634 415.567C228.761 434.974 227.198 436.539 208.967 437.269L200.533 437.607V443.293V448.978L205.415 448.694C216.604 448.042 286.721 447.828 302.942 448.397C335.984 449.553 371.423 449.232 385.145 447.651L387.086 447.427L387.057 439.709C387.031 432.724 387.347 427.889 388.685 414.853C389.436 407.535 390.648 396.87 391.35 391.409L391.672 388.91H385.679C382.187 388.91 379.563 389.109 379.391 389.387C379.229 389.65 378.922 390.882 378.708 392.125C377.976 396.393 376.397 403.796 375.333 407.951C375.098 408.867 374.233 412.402 373.41 415.805C372.587 419.209 371.606 423.091 371.231 424.431L370.548 426.869L367.349 427.87C361.48 429.706 357.576 430.48 347.717 431.765C341.242 432.609 308.28 432.876 291.749 432.218C268.112 431.279 267.293 431.227 266.821 430.638C266.559 430.312 266.236 409.887 266.031 380.735L265.686 331.384L269.905 331.121C280.507 330.46 314.426 330.258 322.233 330.81C338.44 331.954 342.441 333.238 344.917 338.09C346.765 341.71 347.234 344.634 347.553 354.517L347.864 364.157H354.051H360.239L359.916 360.706C358.759 348.39 358.76 302.194 359.917 287.398L360.243 283.233H354.048H347.853L347.612 292.892C347.404 301.181 347.217 303.037 346.287 305.98C345.041 309.926 343.35 311.975 340.714 312.733C334.437 314.538 303.774 315.53 280.129 314.692C272.429 314.419 266.011 314.079 265.867 313.936C265.558 313.626 266.637 220.82 266.954 220.503C267.252 220.205 277.404 219.581 292.463 218.934C306.549 218.33 331.751 218.602 337.238 219.418C347.633 220.963 353.774 222.139 357.243 223.251C357.898 223.46 360.081 224.135 362.094 224.751L365.753 225.87L366.254 229.679C367.149 236.493 367.722 244.932 367.722 251.295V257.528H373.866H380.009L380.299 250.983C380.781 240.111 381.485 232.91 383.011 223.254C383.89 217.692 385.612 209.752 386.615 206.637C387.004 205.433 387.114 204.361 386.874 204.121C386.643 203.891 382.616 203.443 377.922 203.125C368.997 202.521 345.991 202.53 287.462 203.16C257.826 203.48 249.03 203.408 211.726 202.54C203.343 202.345 196.323 202.356 196.127 202.564ZM590.598 204.91C585.516 206.78 581.38 210.448 579.073 215.131C577.607 218.107 577.543 218.474 577.549 223.958C577.553 229.184 577.666 229.922 578.851 232.46C580.4 235.78 584.932 240.412 587.994 241.806C593.183 244.168 600.159 244.302 605.053 242.133C612.919 238.646 617.982 229.135 616.412 220.793C615.7 217.01 615.101 215.424 613.465 212.999C610.731 208.947 607.835 206.574 603.842 205.115C600.891 204.037 593.29 203.92 590.598 204.91ZM1314.78 205.631C1309.75 207.959 1305.48 212.758 1303.94 217.82C1303.11 220.557 1303 227.165 1303.74 229.491C1305.45 234.838 1309.87 240.039 1314.54 242.173C1316.97 243.289 1317.88 243.431 1322.75 243.456C1327.98 243.484 1328.37 243.415 1331.33 241.965C1337.15 239.103 1341.39 233.461 1342.35 227.284C1343.34 220.957 1341.53 214.763 1337.41 210.382C1332.95 205.636 1329.48 204.203 1322.52 204.235C1318.29 204.255 1317.41 204.413 1314.78 205.631ZM462.511 281.858C456.89 284.467 444.914 288.163 436.551 289.868C434.979 290.189 432.836 290.637 431.788 290.864C430.74 291.091 428.382 291.515 426.549 291.806C424.715 292.097 422.18 292.536 420.915 292.783C419.651 293.028 418.061 293.23 417.382 293.23C416.703 293.23 414.79 293.466 413.131 293.755L410.115 294.279V299.402V304.525L420.952 304.784C432.296 305.054 433.752 305.298 436.7 307.42C439.197 309.218 439.709 311.286 440.842 324.171C441.358 330.037 441.537 340.037 441.546 363.681C441.561 403.084 440.704 424.683 438.88 430.828C437.845 434.316 436.036 435.415 429.645 436.445C425.904 437.047 415.511 437.95 412.378 437.944L410.115 437.94V443.458V448.975L416.427 448.575C424.644 448.054 489.178 448.056 498.593 448.577L505.857 448.98V443.46V437.94H496.687C482.308 437.94 475.928 436.142 473.951 431.533C472.076 427.162 470.869 402.447 471.263 376.533C471.773 343.141 473.476 333.345 480.347 324.282C483.05 320.718 490.801 314.651 492.652 314.651C492.998 314.651 493.485 314.48 493.734 314.272C494.484 313.644 497.322 312.856 500.939 312.272C507.483 311.216 515.275 313.577 519.628 317.937C522.566 320.881 523.283 321.85 524.965 325.157L526.399 327.979H530.57H534.741L535.326 315.246C535.905 302.682 536.094 300.345 537.275 291.21C538.011 285.521 537.798 284.533 535.614 283.497C532.159 281.859 528.788 281.329 521.813 281.329C514.382 281.329 511.949 281.763 506.468 284.064C499.421 287.023 492.908 292.686 485.534 302.267C482.545 306.149 475.266 314.795 473.173 316.946L470.545 319.649L470.696 300.803C470.82 285.363 470.729 281.814 470.193 281.167C469.175 279.937 466.042 280.219 462.511 281.858ZM606.837 281.892C604.872 282.68 602.836 283.503 602.312 283.719C597.502 285.701 584.539 289.491 578.02 290.82C576.448 291.141 574.304 291.587 573.256 291.812C572.209 292.038 570.601 292.328 569.684 292.458C568.767 292.588 566.195 293.009 563.968 293.393C561.741 293.777 558.874 294.236 557.596 294.412C553.788 294.94 553.965 294.634 553.965 300.659V306.082H564.032C574.904 306.082 577.028 306.411 579.023 308.405C581.051 310.432 581.465 312.222 582.018 321.368C582.794 334.208 582.666 393.848 581.822 412.235C580.947 431.293 580.543 433.392 577.465 434.851C575.321 435.868 560.656 437.957 555.752 437.945L553.965 437.94V443.456V448.972L559.8 448.574C567.439 448.051 625.531 448.058 634.583 448.581L641.609 448.988V443.464V437.94H639.783C638.779 437.94 636.796 437.74 635.377 437.497C633.958 437.252 630.975 436.803 628.748 436.497C616.296 434.788 614.841 433.177 613.502 419.613C611.963 404.036 612.748 321.136 614.747 288.086C615.063 282.852 615.044 282.697 614.051 282.437C613.489 282.29 613.03 282.015 613.03 281.826C613.03 281.537 610.802 280.294 610.506 280.417C610.453 280.44 608.802 281.103 606.837 281.892ZM1182.24 281.885C1176.85 284.414 1164.69 288.152 1156.28 289.868C1154.71 290.189 1152.56 290.633 1151.51 290.856C1148.88 291.417 1144.56 292.137 1140.32 292.721C1138.36 292.992 1135.19 293.45 1133.29 293.74L1129.84 294.268V299.396V304.525L1140.68 304.784C1152.02 305.054 1153.48 305.298 1156.43 307.42C1158.24 308.728 1158.66 309.647 1159.56 314.337C1161.19 322.77 1161.48 330.612 1161.44 364.633C1161.39 408.177 1160.48 427.131 1158.21 431.846C1156.34 435.74 1153.2 436.525 1134.49 437.77L1129.84 438.079V443.527V448.975L1136.15 448.575C1144.41 448.051 1208.88 448.057 1218.56 448.582L1226.06 448.989V443.464V437.94H1216.65C1202.46 437.94 1195.95 436.228 1193.93 431.963C1192.19 428.305 1191.31 416.236 1190.96 391.052C1190.6 365.426 1191.64 346.512 1193.9 337.738C1196.87 326.23 1203.43 318.388 1213.56 314.225C1222.07 310.73 1231.14 311.55 1237.73 316.414C1239.98 318.076 1243.07 321.99 1244.87 325.48L1246.16 327.979H1250.33H1254.49L1254.8 322.907C1254.98 320.117 1255.12 315.993 1255.13 313.743C1255.14 311.493 1255.59 305.368 1256.13 300.132C1257.74 284.63 1257.72 285.38 1256.56 284.307C1254.46 282.35 1251.06 281.642 1242.78 281.438C1233.81 281.216 1231.56 281.608 1225.15 284.509C1218.33 287.589 1211.84 293.59 1203.59 304.416C1202.2 306.249 1200.94 307.855 1200.81 307.986C1200.67 308.117 1199.6 309.396 1198.43 310.828C1197.25 312.259 1194.94 314.83 1193.3 316.54L1190.31 319.649L1190.64 301.233C1190.93 284.454 1190.89 282.708 1190.16 281.597C1189.04 279.888 1186.28 279.988 1182.24 281.885ZM1333.95 281.416C1332.64 281.945 1331.03 282.6 1330.37 282.869C1327.84 283.913 1327.13 284.168 1322.28 285.757C1311.57 289.266 1305.8 290.681 1293.7 292.768C1291.99 293.062 1289.64 293.486 1288.46 293.712C1287.28 293.937 1285.19 294.25 1283.81 294.407C1279.69 294.875 1279.88 294.57 1279.88 300.659V306.082H1289.95C1300.92 306.082 1302.89 306.398 1305.1 308.502C1307.59 310.888 1307.86 312.967 1308.51 335.534C1308.98 351.953 1308.99 362.525 1308.53 387.182C1307.82 424.959 1307.32 431.341 1304.83 433.829C1303.45 435.202 1301.34 435.816 1295.6 436.509C1293.11 436.81 1289.51 437.255 1287.6 437.498C1285.69 437.741 1283.18 437.94 1282.01 437.94H1279.88V443.456V448.972L1285.72 448.574C1293.36 448.051 1351.45 448.058 1360.5 448.581L1367.53 448.988V443.464V437.94H1365.7C1364.7 437.94 1362.71 437.74 1361.3 437.497C1359.88 437.252 1356.89 436.805 1354.67 436.503C1348.29 435.638 1344.37 434.27 1342.8 432.365C1340.46 429.532 1339.84 425.621 1338.9 407.874C1337.84 387.896 1339.47 298.732 1341.13 285.795L1341.45 283.36L1339.28 281.868C1336.77 280.145 1337.04 280.167 1333.95 281.416ZM739.256 281.866C729.224 283.491 723.592 285.227 714.487 289.503C707.601 292.737 705.77 293.683 697.101 298.482C691.429 301.623 683.217 307.211 679.809 310.25C673.108 316.227 667.586 324.18 663.812 333.29C659.167 344.504 656.851 356.991 656.851 370.821C656.851 386.903 660.137 401.783 666.445 414.271C669.326 419.976 675.404 428.204 679.474 431.908C679.999 432.386 681.18 433.461 682.097 434.296C685.81 437.679 690.732 440.935 696.148 443.592C702.244 446.583 703.127 446.938 707.58 448.186C709.152 448.626 710.974 449.156 711.629 449.363C712.879 449.757 715.825 450.361 721.393 451.362C726.749 452.325 747.91 452.162 753.545 451.114C766.581 448.69 774.032 446.305 783.824 441.419C786.95 439.859 787.359 439.469 789.54 435.965C790.832 433.889 792.107 431.932 792.372 431.614C793.631 430.11 794.474 428.411 794.24 427.85C794.097 427.509 792.963 426.444 791.719 425.484L789.457 423.738L786.625 425.072C781.574 427.452 780.523 427.874 776.07 429.321C758.987 434.87 744.195 435.388 730.682 430.909C726.568 429.545 720.991 427.036 720.758 426.443C720.671 426.222 720.339 426.04 720.02 426.04C718.467 426.04 708.326 416.831 704.818 412.235C703.718 410.795 702.701 409.51 702.557 409.379C699.943 407.007 692.623 391.138 691.085 384.507C690.031 379.966 689.714 378.39 689.054 374.391C685.752 354.414 687.877 334.885 694.779 321.783C702.974 306.224 718.568 298.549 739.732 299.655C753.681 300.385 767.41 305.185 773.916 311.607C777.117 314.767 778.275 319.5 778.297 329.526L778.314 337.024H783.981H789.648L789.935 330.478C790.448 318.804 791.877 305.467 793.568 296.562C794.651 290.867 794.651 290.88 793.339 290.382C792.671 290.127 791.107 289.464 789.864 288.906C788.62 288.349 786.959 287.613 786.173 287.271C783.446 286.084 779.031 284.588 776.892 284.127C775.709 283.871 773.884 283.462 772.836 283.217C765.56 281.515 746.227 280.738 739.256 281.866ZM1470.89 281.866C1463.39 283.081 1456.09 285.009 1451.84 286.899C1447.05 289.026 1432.3 296.441 1429.65 298.046C1427.98 299.063 1426.39 299.894 1426.12 299.894C1425.86 299.894 1425.64 300.108 1425.64 300.37C1425.64 300.632 1425.41 300.846 1425.12 300.846C1423.98 300.846 1413.76 308.118 1410.62 311.165C1406.28 315.373 1404.9 317 1401.98 321.323C1394.24 332.819 1390.35 345.31 1388.9 363.326C1388.33 370.378 1388.82 382.473 1389.9 387.958C1390.13 389.136 1390.57 391.492 1390.88 393.194C1391.18 394.896 1391.6 396.824 1391.81 397.478C1392.01 398.133 1392.67 400.275 1393.28 402.239C1393.88 404.202 1394.55 406.012 1394.76 406.261C1394.98 406.509 1395.15 407.011 1395.15 407.374C1395.15 408.268 1399.45 417.192 1399.98 417.392C1400.21 417.479 1400.39 417.765 1400.39 418.028C1400.39 420.038 1413 434.556 1416.58 436.669C1417.35 437.125 1418.26 437.765 1418.6 438.092C1420.48 439.922 1428.86 444.497 1433.74 446.368C1438.68 448.263 1446.38 450.252 1453.03 451.352C1458.09 452.189 1479.4 452.2 1483.99 451.367C1495.16 449.341 1502.95 447.156 1509.71 444.156C1515.6 441.542 1519.18 439.516 1519.85 438.416C1520.25 437.762 1521.83 435.288 1523.36 432.918C1524.89 430.549 1526.14 428.493 1526.14 428.35C1526.14 428.026 1524.91 426.697 1522.96 424.923L1521.47 423.568L1518.45 424.986C1513.11 427.49 1512.17 427.87 1507.7 429.321C1492.46 434.274 1479.3 435.195 1466.84 432.18C1462.73 431.185 1457.23 429.22 1454.93 427.927C1449.91 425.093 1449.81 425.027 1445.08 421.071C1434.65 412.363 1426.06 397.831 1422.57 382.96C1421.13 376.846 1420.93 375.843 1420.31 371.773C1419.47 366.255 1419.48 345.458 1420.33 341.308C1422.55 330.375 1424.39 324.96 1427.69 319.649C1429.32 317.014 1432.48 312.984 1433.97 311.639C1434.49 311.161 1435.65 310.115 1436.53 309.312C1438.13 307.863 1442.89 304.865 1445.17 303.872C1445.82 303.587 1446.9 303.121 1447.55 302.836C1449.01 302.204 1451.43 301.551 1456.12 300.527C1460.58 299.555 1474.44 299.421 1478.99 300.306C1488.89 302.234 1496.73 305.132 1502.26 308.905C1508.42 313.106 1509.9 317.092 1509.93 329.526L1509.95 337.024H1515.61C1520.34 337.024 1521.33 336.899 1521.57 336.271C1521.73 335.856 1521.86 332.925 1521.86 329.758C1521.86 326.59 1522.07 322.055 1522.34 319.681C1522.6 317.307 1523.04 313.33 1523.32 310.842C1523.89 305.626 1524.61 300.585 1525.22 297.514C1525.45 296.336 1525.77 294.37 1525.94 293.145L1526.24 290.918L1524.17 289.986C1523.03 289.473 1521.02 288.571 1519.71 287.98C1515.38 286.028 1510.15 284.42 1503.28 282.927C1496.46 281.446 1477.35 280.82 1470.89 281.866ZM1628.08 281.908C1619.01 283.481 1609.98 286.33 1602.83 289.865C1587.07 297.669 1575.82 306.363 1569.54 315.596C1564.56 322.928 1562.26 328.05 1558.55 340.118C1557.94 342.121 1556.31 350.81 1555.7 355.35C1555.06 360.172 1555.04 379.014 1555.68 383.159C1555.95 384.882 1556.4 387.791 1556.68 389.624C1557.22 393.076 1558.59 398.69 1559.71 402.001C1561.21 406.442 1564.48 413.972 1565.18 414.615C1565.32 414.746 1565.96 415.817 1566.6 416.995C1567.23 418.173 1567.9 419.244 1568.07 419.375C1568.25 419.506 1568.67 420.136 1569.01 420.773C1569.69 422.071 1569.55 421.887 1572.75 425.802C1575.43 429.086 1581.81 435.281 1584.26 436.977C1585.17 437.613 1586.03 438.276 1586.16 438.452C1586.29 438.627 1587.73 439.63 1589.36 440.679C1595.99 444.946 1604.25 448.251 1613.31 450.255C1620.56 451.859 1622.05 451.982 1634.03 451.973C1645.85 451.964 1647.45 451.838 1655.7 450.263C1663.67 448.744 1674.11 445.752 1677.25 444.09C1677.71 443.85 1678.3 443.652 1678.58 443.652C1679.38 443.652 1691 437.9 1693.21 436.406C1694.33 435.654 1695.24 434.763 1695.24 434.426C1695.24 434.089 1696.05 431.797 1697.05 429.331C1698.04 426.867 1699.15 423.919 1699.52 422.781L1700.18 420.713L1698.6 419.33C1697.73 418.569 1696.93 417.947 1696.82 417.947C1696.72 417.947 1696.05 418.355 1695.34 418.853C1691.32 421.673 1680.91 427.307 1678.33 428.059C1677.81 428.212 1676.13 428.789 1674.62 429.342C1668.98 431.395 1662.32 432.836 1654.61 433.671C1644 434.822 1628.7 431.988 1620.33 427.318C1616.37 425.107 1615.93 424.849 1615.69 424.589C1615.56 424.445 1614.7 423.809 1613.79 423.174C1612.87 422.539 1611.69 421.617 1611.17 421.125C1610.64 420.633 1609.49 419.668 1608.6 418.979C1607.26 417.948 1603.72 413.801 1600.23 409.193C1599.09 407.693 1594.41 397.906 1593.37 394.86C1590.8 387.315 1588.54 374.762 1588.54 368.006V365.23L1631.29 364.953C1679.85 364.639 1684.72 364.384 1699.68 361.384C1702.25 360.868 1704.5 360.3 1704.68 360.12C1705.26 359.539 1705 338.88 1704.36 335.357C1702.33 324.089 1699.87 316.952 1695.48 309.652C1694.69 308.343 1693.94 307.165 1693.8 307.034C1693.65 306.903 1692.74 305.698 1691.77 304.357C1687.57 298.561 1678.79 291.442 1671.58 287.994C1666.07 285.361 1664.83 284.943 1657.37 283.202C1649.64 281.399 1634.79 280.743 1628.08 281.908ZM1640.35 294.904C1645.09 295.893 1647.66 296.815 1651.87 299.046C1661.32 304.055 1665.8 309.848 1669.46 321.791C1671.9 329.791 1672.38 333.22 1672.38 343.052V351.641L1666.99 352.187C1659.8 352.915 1617.6 352.906 1601.47 352.172L1588.92 351.601L1589.22 345.859C1589.82 334.474 1592.09 324.389 1595.81 316.577C1600.59 306.519 1608.68 299.278 1618.79 295.984C1624.42 294.152 1634.35 293.653 1640.35 294.904Z" fill="#001e3e"></path></svg>